<?xml version="1.0" standalone="no"?>
<!DOCTYPE svg PUBLIC "-//W3C//DTD SVG 20010904//EN"
 "http://www.w3.org/TR/2001/REC-SVG-20010904/DTD/svg10.dtd">
<svg version="1.0" xmlns="http://www.w3.org/2000/svg"
 width="128.000000pt" height="128.000000pt" viewBox="0 0 128.000000 128.000000"
 preserveAspectRatio="xMidYMid meet">
<metadata>
Created by potrace 1.11, written by Peter Selinger 2001-2013
</metadata>
<g transform="translate(0.000000,128.000000) scale(0.100000,-0.100000)"
fill="#000000" stroke="none">
<path d="M27 1252 c-38 -40 -33 -48 11 -16 56 42 58 44 36 44 -11 0 -32 -13
-47 -28z"/>
<path d="M388 1273 c7 -3 16 -2 19 1 4 3 -2 6 -13 5 -11 0 -14 -3 -6 -6z"/>
<path d="M1255 1270 c3 -5 10 -10 16 -10 5 0 9 5 9 10 0 6 -7 10 -16 10 -8 0
-12 -4 -9 -10z"/>
<path d="M367 1230 c-14 -22 -26 -30 -47 -30 -38 0 -80 -19 -80 -37 0 -16 16
-17 25 -2 4 6 13 8 21 5 8 -3 14 -1 14 4 0 6 6 10 13 10 17 -1 -59 -66 -105
-90 -21 -11 -47 -20 -58 -20 -12 0 -34 -7 -50 -15 -25 -13 -29 -13 -34 0 -3 8
-1 25 5 37 8 21 9 20 4 -5 -4 -19 -2 -26 5 -22 11 7 14 38 4 48 -4 3 -15 2
-25 -4 -14 -7 -19 -6 -19 2 0 8 -4 8 -14 0 -10 -9 -14 -27 -11 -61 3 -27 0
-52 -5 -55 -6 -3 -10 -13 -10 -21 0 -11 13 -5 43 19 70 57 107 71 107 40 0
-17 -98 -208 -132 -256 -11 -15 -18 -32 -16 -39 2 -6 35 42 73 108 80 139 73
129 82 121 3 -4 -6 -29 -21 -57 -15 -28 -26 -60 -24 -73 3 -19 6 -17 25 18 37
70 96 105 178 105 90 0 154 -49 185 -142 l19 -53 0 45 c1 83 -53 162 -132 195
-21 8 -35 20 -32 25 8 13 75 47 126 65 33 12 39 12 50 -2 21 -24 135 -103 150
-103 24 1 129 47 170 76 l39 27 53 -35 c29 -19 64 -52 77 -72 14 -20 28 -36
31 -36 13 0 19 50 13 92 l-7 43 21 -26 c29 -36 91 -77 152 -100 68 -26 62 -4
-7 25 -28 12 -71 37 -94 56 -37 30 -40 34 -23 41 10 3 22 5 27 2 12 -7 8 22
-5 35 -7 7 -8 12 -4 12 5 0 3 7 -4 15 -7 8 -16 12 -21 9 -5 -3 -17 0 -26 6
-17 11 -17 11 0 6 9 -3 17 -1 17 5 0 10 -17 19 -44 23 -8 1 -19 5 -22 9 -14
14 -24 7 -21 -15 1 -18 -3 -23 -20 -22 -12 0 -20 -3 -17 -7 2 -4 -5 -10 -16
-14 -11 -3 -20 -13 -20 -21 0 -17 5 -17 31 -4 11 7 19 7 19 1 0 -5 -6 -12 -12
-14 -10 -4 -10 -6 0 -6 6 -1 14 -1 17 -1 3 1 13 -7 22 -15 13 -13 18 -14 24
-3 6 9 9 3 9 -17 0 -16 3 -41 7 -55 5 -22 0 -19 -45 22 -28 26 -66 55 -84 64
-33 15 -34 15 -85 -19 -29 -19 -75 -43 -103 -52 -49 -16 -51 -16 -88 6 -20 13
-56 41 -80 63 l-42 39 -70 -27 c-39 -15 -72 -32 -76 -37 -13 -21 -24 -6 -24
31 0 22 5 40 10 40 6 0 10 -6 10 -13 0 -11 15 -13 63 -8 14 2 7 25 -15 48 -12
13 -17 23 -11 23 6 0 13 -3 16 -7 2 -5 2 -2 0 5 -1 8 -3 20 -3 29 0 10 -6 13
-17 8 -15 -5 -16 -4 -5 6 16 17 15 29 -1 29 -7 0 -21 -13 -30 -30z m-35 -140
c-3 -67 -5 -70 -28 -70 -14 0 -48 -10 -75 -21 -56 -25 -74 -18 -64 24 4 14 18
30 34 36 18 8 136 95 136 101 0 0 -1 -31 -3 -70z m86 35 c-3 -3 -9 2 -12 12
-6 14 -5 15 5 6 7 -7 10 -15 7 -18z m668 -20 c1 -9 1 -15 -1 -13 -2 1 -3 6 -2
10 1 4 -7 14 -18 23 -18 15 -19 16 -1 7 11 -5 21 -17 22 -27z m-1054 -42 c-3
-16 -7 -22 -10 -15 -4 13 4 42 11 42 2 0 2 -12 -1 -27z"/>
<path d="M316 1225 c-19 -14 -19 -15 6 -15 14 0 28 7 32 15 7 19 -13 19 -38 0z"/>
<path d="M985 1180 c-3 -5 -1 -10 4 -10 6 0 11 5 11 10 0 6 -2 10 -4 10 -3 0
-8 -4 -11 -10z"/>
<path d="M933 891 c-60 -44 -92 -91 -120 -178 -27 -87 -38 -253 -17 -260 8 -3
14 21 18 69 10 107 25 166 59 231 54 104 140 143 214 97 70 -43 98 -139 90
-313 -4 -86 -2 -117 6 -114 6 2 15 19 19 38 12 53 12 270 0 308 -9 27 -8 38 3
55 8 11 15 27 15 35 0 11 -4 10 -20 -4 -19 -17 -21 -17 -56 14 -70 62 -146 69
-211 22z"/>
<path d="M121 782 c-86 -86 -91 -202 -13 -293 l36 -42 -72 6 c-40 4 -72 3 -72
-1 0 -5 42 -12 93 -16 162 -12 304 -51 338 -92 9 -11 8 -18 -2 -30 -12 -15
-36 -16 -221 -10 -124 4 -208 3 -208 -2 0 -5 88 -12 195 -16 153 -6 200 -5
222 6 36 17 37 54 3 79 -32 24 -128 58 -188 66 -52 7 -112 47 -112 75 0 10 17
29 37 42 l36 25 23 -24 c38 -41 105 -45 147 -7 17 15 20 15 45 0 42 -26 49
-43 27 -69 -11 -12 -35 -28 -54 -36 -38 -16 -36 -27 3 -17 15 3 46 26 71 49
87 85 95 214 19 304 -34 39 -61 55 -51 29 10 -28 -14 -59 -65 -83 -114 -53
-225 -9 -174 70 20 30 20 35 1 35 -9 0 -38 -22 -64 -48z"/>
<path d="M466 378 c-10 -21 8 -53 39 -74 27 -18 76 -12 95 11 10 12 15 12 29
-5 28 -33 64 -35 99 -5 18 15 32 34 32 43 0 12 -8 7 -26 -15 -36 -46 -90 -41
-106 9 -3 8 -13 5 -33 -10 -51 -40 -107 -22 -117 38 -4 20 -6 22 -12 8z"/>
<path d="M1263 198 c-17 -129 -23 -143 -80 -172 -37 -19 -43 -25 -25 -26 13 0
32 5 43 10 13 7 19 7 19 0 0 -14 27 -13 33 3 4 9 6 9 6 0 1 -7 6 -13 11 -13
12 0 9 22 -4 31 -4 4 -3 37 4 75 6 38 10 96 8 129 l-3 60 -12 -97z"/>
<path d="M1 178 c-1 -85 15 -178 31 -178 6 0 8 13 4 35 -9 45 0 45 18 0 l15
-35 82 0 c45 0 80 2 78 4 -2 2 -39 18 -83 36 -110 46 -123 60 -134 145 l-9 70
-2 -77z"/>
</g>
</svg>
