<?xml version="1.0" standalone="no"?>
<!DOCTYPE svg PUBLIC "-//W3C//DTD SVG 20010904//EN"
 "http://www.w3.org/TR/2001/REC-SVG-20010904/DTD/svg10.dtd">
<svg version="1.0" xmlns="http://www.w3.org/2000/svg"
 width="400.000000pt" height="400.000000pt" viewBox="0 0 400.000000 400.000000"
 preserveAspectRatio="xMidYMid meet">
<metadata>
Created by potrace 1.11, written by Peter Selinger 2001-2013
</metadata>
<g transform="translate(0.000000,400.000000) scale(0.100000,-0.100000)"
fill="#000000" stroke="none">
<path d="M0 2000 l0 -2000 214 0 213 0 6 688 c6 814 30 1335 78 1703 l12 87
106 31 c58 17 162 45 231 62 69 17 128 35 131 41 3 5 12 62 18 126 22 204 95
504 127 516 9 3 28 6 42 6 l27 0 0 -290 c0 -244 2 -292 15 -304 13 -14 36 -12
205 14 334 52 583 72 969 76 213 2 353 7 359 13 11 11 -9 200 -43 419 -11 67
-20 129 -20 137 0 12 14 15 63 14 90 -1 109 -9 131 -53 31 -63 85 -232 126
-395 21 -84 41 -156 44 -158 3 -3 63 -14 133 -24 70 -10 180 -29 243 -42 l115
-23 12 -79 c15 -107 33 -420 43 -750 9 -296 4 -1691 -6 -1768 l-7 -47 207 0
206 0 0 2000 0 2000 -2000 0 -2000 0 0 -2000z m2738 1563 c21 -32 51 -79 66
-105 l28 -48 -81 0 c-80 0 -81 0 -86 28 -7 30 -69 255 -80 287 -10 30 108 -95
153 -162z m-1505 -141 c-16 -90 -17 -92 -45 -92 -15 0 -28 5 -28 10 0 16 80
184 85 179 2 -3 -3 -46 -12 -97z"/>
<path d="M3196 2492 c-13 -20 -44 -54 -69 -75 l-45 -37 -74 40 c-92 49 -178
70 -293 70 -291 0 -462 -173 -505 -512 -9 -78 -1 -108 28 -108 28 0 42 21 42
61 0 53 33 151 69 208 136 211 395 281 612 165 114 -61 220 -196 250 -320 7
-27 16 -57 21 -66 11 -22 41 -23 58 -3 31 37 -53 288 -123 371 -15 18 -27 36
-27 40 0 5 18 22 40 38 77 57 112 134 71 156 -28 14 -28 14 -55 -28z"/>
<path d="M914 2425 c-9 -24 5 -66 37 -109 36 -49 36 -56 3 -87 -32 -29 -126
-154 -147 -195 -24 -47 -49 -142 -42 -163 7 -24 41 -37 59 -22 7 6 19 30 26
53 42 141 130 252 243 308 90 43 152 53 241 35 174 -33 280 -133 317 -298 14
-64 28 -82 59 -72 18 6 20 15 20 75 0 160 -111 342 -253 413 -102 52 -250 46
-371 -15 l-60 -30 -24 28 c-13 16 -30 44 -38 62 -11 24 -21 32 -39 32 -14 0
-28 -7 -31 -15z"/>
<path d="M2910 2085 c-9 -11 -9 -21 1 -48 24 -69 -17 -154 -90 -184 -40 -17
-193 -19 -251 -3 -22 6 -48 23 -60 37 -19 24 -21 35 -15 99 7 66 6 72 -13 76
-51 14 -154 -109 -193 -231 -15 -46 -23 -102 -26 -186 -6 -135 7 -209 54 -304
46 -95 151 -181 222 -181 56 0 61 60 5 74 -40 10 -99 52 -124 86 -18 25 -20
36 -12 54 8 19 110 106 124 106 3 0 8 -14 12 -31 12 -62 97 -119 176 -119 92
0 165 59 176 140 4 28 10 50 14 50 3 0 28 -7 55 -16 53 -19 125 -83 125 -112
0 -31 -56 -99 -105 -128 -39 -22 -46 -31 -43 -53 4 -38 42 -39 100 -2 177 112
216 418 87 688 -37 77 -97 154 -142 182 -40 25 -60 26 -77 6z"/>
<path d="M1434 1972 c-6 -4 -13 -31 -16 -60 -6 -61 -27 -94 -84 -135 -70 -49
-219 -46 -274 5 -20 18 -22 29 -18 97 3 72 2 76 -19 79 -86 12 -191 -195 -200
-398 -8 -171 25 -292 105 -381 46 -51 126 -99 168 -99 44 0 61 54 22 69 -13 5
-37 14 -55 21 -17 6 -48 28 -67 48 l-36 36 22 24 c23 24 102 82 112 82 3 0 12
-13 21 -30 20 -38 82 -70 136 -70 81 0 155 57 175 134 3 14 8 26 10 26 16 0
84 -43 108 -69 26 -27 28 -34 18 -55 -17 -39 -79 -102 -112 -116 -52 -21 -51
-80 1 -80 63 0 180 130 212 235 7 24 12 97 12 180 0 127 -3 147 -28 219 -35
99 -87 178 -143 216 -45 32 -52 34 -70 22z"/>
<path d="M2156 1044 c-10 -9 -16 -33 -16 -60 0 -53 -26 -121 -51 -134 -57 -31
-131 14 -170 104 -20 47 -28 56 -50 56 -29 0 -39 -15 -39 -60 0 -78 -37 -140
-84 -140 -14 0 -38 11 -53 24 -24 21 -29 33 -33 93 -5 64 -6 68 -30 68 -50 0
-63 -87 -26 -166 25 -53 71 -82 136 -87 49 -4 60 -1 88 23 18 15 40 41 48 57
l15 29 20 -25 c25 -32 96 -66 138 -66 88 0 152 78 166 206 6 49 4 63 -10 77
-20 21 -29 21 -49 1z"/>
</g>
</svg>
