<?xml version="1.0" standalone="no"?>
<!DOCTYPE svg PUBLIC "-//W3C//DTD SVG 20010904//EN"
 "http://www.w3.org/TR/2001/REC-SVG-20010904/DTD/svg10.dtd">
<svg version="1.0" xmlns="http://www.w3.org/2000/svg"
 width="256.000000pt" height="256.000000pt" viewBox="0 0 256.000000 256.000000"
 preserveAspectRatio="xMidYMid meet">
<metadata>
Created by potrace 1.11, written by Peter Selinger 2001-2013
</metadata>
<g transform="translate(0.000000,256.000000) scale(0.100000,-0.100000)"
fill="#000000" stroke="none">
<path d="M408 2543 c-36 -42 -56 -179 -40 -278 9 -56 8 -63 -18 -110 -36 -65
-57 -141 -66 -239 -5 -57 -12 -84 -26 -98 -10 -10 -23 -30 -28 -44 -15 -39
-12 -127 5 -150 12 -15 14 -67 15 -284 l0 -266 -59 -61 c-92 -94 -110 -184
-60 -284 23 -46 89 -104 152 -134 l48 -23 -33 -25 c-18 -13 -44 -28 -58 -32
-77 -22 -95 -101 -36 -153 31 -27 34 -34 29 -70 -8 -57 2 -86 42 -131 l34 -38
-30 -22 c-58 -43 -25 -67 91 -70 85 -1 161 10 167 26 3 7 -7 31 -22 53 -18 26
-30 58 -33 90 -5 58 8 80 47 80 14 0 44 9 67 19 38 17 42 17 70 2 42 -23 197
-22 241 1 29 16 35 16 73 3 24 -8 60 -15 80 -15 27 0 49 -8 72 -27 18 -15 34
-28 35 -28 2 -1 -4 -23 -13 -49 -10 -30 -24 -50 -38 -56 -35 -13 -76 -57 -70
-74 5 -13 24 -16 99 -16 100 0 125 5 125 25 0 7 8 23 18 35 l19 23 28 -36 27
-37 120 0 c101 0 120 2 125 16 9 24 -8 45 -58 72 -25 13 -51 37 -61 55 l-16
32 30 16 c28 14 32 14 76 -8 58 -29 130 -30 188 -2 40 19 45 19 73 5 17 -9 49
-17 72 -18 22 -1 47 -8 55 -15 20 -20 17 -74 -6 -103 -11 -14 -20 -33 -20 -42
0 -16 12 -18 109 -18 69 0 112 4 117 11 3 6 -3 23 -14 38 -20 27 -20 28 -1 39
33 21 55 78 43 111 -9 21 -8 32 2 46 26 36 17 84 -22 121 -19 19 -45 34 -56
34 -16 0 -7 10 34 40 31 22 63 54 72 74 36 76 10 184 -60 245 l-34 30 49 49
c27 27 54 66 61 88 7 21 26 54 41 72 39 45 41 126 5 169 -14 16 -29 52 -34 80
l-9 52 38 -20 c60 -30 169 -20 169 17 0 6 7 15 16 18 27 11 15 123 -19 175
-52 79 -156 133 -221 114 -24 -7 -34 -5 -48 9 -10 10 -29 18 -43 18 -26 0 -75
-39 -75 -60 0 -6 -17 -2 -38 9 -126 64 -391 66 -535 3 l-42 -18 -20 30 c-25
38 -74 47 -102 19 -15 -15 -25 -16 -55 -9 -33 8 -37 12 -32 33 9 35 -4 87 -31
127 -18 26 -27 60 -35 124 -13 103 -41 196 -74 241 -21 28 -23 37 -14 74 5 23
8 85 5 137 -5 106 -27 167 -63 176 -44 11 -141 -47 -198 -121 -31 -40 -31 -40
-97 -39 l-66 0 -57 61 c-83 89 -164 125 -198 86z m162 -393 c0 -20 -5 -30 -15
-30 -18 0 -19 14 -5 41 15 27 20 24 20 -11z m345 -39 c-12 -11 -33 30 -27 52
5 20 7 19 19 -12 8 -18 11 -36 8 -40z m-345 -46 c0 -31 -3 -35 -25 -35 -26 0
-29 9 -19 48 4 13 14 22 25 22 15 0 19 -7 19 -35z m353 28 c2 -5 7 -20 11 -35
6 -25 4 -28 -19 -28 -22 0 -25 4 -25 35 0 24 5 35 14 35 8 0 17 -3 19 -7z
m-86 -84 c-20 -12 -47 -67 -47 -96 0 -10 9 0 19 22 42 93 173 87 218 -9 l14
-31 -5 31 c-3 16 -6 36 -8 43 -4 15 28 39 38 28 9 -9 33 -244 33 -335 1 -63
-2 -78 -24 -106 -36 -47 -55 -99 -55 -152 0 -37 4 -47 20 -51 11 -3 17 -10 14
-15 -4 -6 0 -14 7 -19 11 -6 7 -21 -19 -74 -18 -37 -29 -72 -26 -78 4 -7 4 -9
0 -5 -4 3 -31 -8 -59 -25 l-52 -32 -178 1 c-177 1 -179 1 -227 29 -43 25 -53
38 -92 119 l-43 91 -4 201 c-3 209 11 430 29 448 14 14 47 -7 41 -26 -2 -7 -5
-24 -6 -38 -1 -14 0 -17 2 -8 2 9 20 31 39 48 28 24 43 30 82 30 55 0 85 -20
106 -70 13 -29 15 -31 16 -12 0 30 -25 78 -47 91 -13 8 17 10 107 10 94 0 120
-2 107 -10z m-367 -3 c0 -9 -30 -14 -35 -6 -4 6 3 10 14 10 12 0 21 -2 21 -4z
m552 -8 c-9 -9 -15 -9 -24 0 -9 9 -7 12 12 12 19 0 21 -3 12 -12z m-749 -281
c-6 -86 -15 -108 -27 -64 -11 41 -6 99 11 128 9 15 18 27 20 26 1 -2 0 -42 -4
-90z m942 14 c3 -20 1 -50 -6 -66 -10 -28 -12 -28 -19 -10 -5 11 -9 49 -9 85
0 58 1 63 14 47 7 -11 16 -36 20 -56z m204 -113 c15 -26 14 -28 -41 -85 -30
-33 -65 -77 -76 -100 -18 -34 -25 -40 -46 -36 -35 7 -58 36 -54 70 2 22 9 29
31 31 31 4 31 5 15 32 -19 31 1 55 46 55 26 0 35 4 31 13 -3 7 0 22 6 33 16
30 69 22 88 -13z m515 16 c71 -18 126 -49 179 -100 51 -49 91 -110 81 -125 -4
-8 -3 -9 4 -5 8 5 11 0 10 -11 -1 -10 8 -51 21 -91 20 -62 23 -88 19 -180 -5
-129 -22 -175 -93 -245 -27 -26 -50 -46 -51 -44 -2 2 4 30 13 62 31 112 16
385 -27 500 -6 17 -23 42 -38 58 -17 18 -21 27 -11 27 25 1 -39 49 -74 55 -36
7 -107 -16 -107 -34 0 -5 14 -3 30 6 51 25 63 13 62 -67 0 -23 0 -23 5 -2 2
12 7 22 10 22 11 0 112 -65 113 -73 0 -4 -5 -14 -12 -21 -10 -10 -19 -8 -46
11 -19 13 -43 23 -53 23 -10 0 -34 14 -54 31 l-36 32 -32 -30 c-18 -17 -47
-38 -64 -47 -30 -15 -36 -15 -63 -1 -16 8 -45 29 -64 45 l-34 31 -24 -23 c-13
-13 -17 -17 -8 -10 22 16 26 16 63 -12 18 -13 47 -31 64 -40 31 -16 35 -15 72
3 21 11 52 31 68 45 l30 25 23 -24 22 -24 -33 -14 c-43 -18 -65 -43 -74 -84
-9 -43 1 -42 19 0 35 86 189 81 216 -7 l9 -31 -2 37 c-2 56 19 70 33 22 14
-49 25 -305 16 -368 -7 -42 -12 -50 -59 -81 -64 -42 -110 -53 -253 -61 -223
-13 -392 39 -418 131 -7 24 0 -37 10 -85 l7 -35 -51 49 c-78 75 -96 126 -96
271 0 99 4 129 21 170 32 78 37 93 24 75 -18 -25 -12 -2 9 41 48 94 156 179
257 203 82 20 289 20 367 0z m236 1 c6 -8 9 -23 6 -33 -6 -16 -1 -19 36 -18
40 1 43 -1 46 -27 2 -16 -2 -35 -9 -43 -9 -11 -7 -14 14 -14 13 0 30 -6 36
-14 16 -18 4 -64 -19 -76 -37 -20 -59 -11 -81 32 -12 23 -45 66 -75 95 -54 54
-54 54 -39 84 12 22 23 29 44 29 16 0 34 -7 41 -15z m-874 -20 c18 -13 18 -14
-4 -8 -29 7 -62 -22 -62 -55 0 -14 -11 -35 -25 -48 -14 -13 -25 -32 -25 -42 0
-27 35 -69 65 -76 36 -9 31 -23 -17 -47 -67 -34 -177 -24 -140 13 21 21 13 31
-18 25 -29 -6 -30 -6 -30 35 0 81 56 159 145 199 49 22 85 24 111 4z m1050
-16 c75 -46 131 -139 122 -202 -2 -17 -9 -21 -30 -19 -31 3 -33 0 -18 -28 13
-25 0 -32 -59 -32 -47 0 -131 33 -131 51 0 5 16 15 35 21 57 19 75 82 32 117
-13 11 -21 26 -19 40 4 27 -30 63 -60 64 -22 0 -22 1 -3 9 28 13 93 3 131 -21z
m-326 -105 c12 -12 12 -14 0 -14 -8 0 -3 -12 16 -32 l29 -31 -43 24 c-24 13
-51 37 -59 53 l-15 29 29 -7 c15 -4 35 -14 43 -22z m-769 -185 c-9 -22 -10
-22 -10 -3 -1 11 2 24 6 27 12 12 14 0 4 -24z m-7 -278 c-7 -8 -44 66 -44 87
0 12 8 39 17 60 l17 37 6 -90 c4 -49 5 -92 4 -94z m1056 94 c0 -28 -7 -51 -20
-66 l-19 -24 2 88 c2 85 3 87 20 66 10 -13 17 -38 17 -64z m-1496 -32 l69 -6
-64 -33 c-35 -18 -69 -33 -76 -34 -6 0 -42 14 -80 32 l-68 32 50 6 c75 10 94
10 169 3z m-358 -24 c12 -4 30 -18 41 -32 23 -30 66 -53 116 -62 41 -8 41 -10
26 -75 -6 -25 -16 -78 -23 -117 l-13 -73 98 0 c92 0 99 1 99 20 0 15 11 23 45
32 25 7 45 17 45 23 -1 5 -21 48 -45 95 l-45 85 28 3 c56 6 122 34 146 62 19
23 82 60 102 60 2 0 4 -28 4 -63 l0 -64 51 -11 c28 -7 55 -12 60 -12 5 0 9 30
9 66 l0 66 30 -32 c16 -18 30 -36 30 -41 0 -19 39 -84 68 -116 l30 -32 -37
-29 c-20 -16 -48 -46 -61 -66 -14 -20 -28 -36 -31 -36 -3 0 -12 23 -21 51
l-17 50 32 20 c21 12 26 19 15 19 -9 0 -20 -4 -23 -10 -13 -21 -34 -9 -45 25
-6 19 -15 37 -19 40 -5 2 9 -44 30 -103 29 -80 39 -123 39 -169 l0 -62 -37
-11 c-170 -48 -472 -59 -678 -25 -60 10 -118 22 -127 27 -15 7 -18 23 -17 111
0 56 6 137 13 179 7 42 9 75 5 72 -4 -2 -10 -27 -14 -54 -7 -48 -8 -50 -38
-51 -30 -1 -30 -1 -7 -8 25 -7 25 -9 28 -119 l3 -112 -28 11 c-57 21 -123 72
-153 116 -25 39 -30 56 -30 105 0 76 20 122 77 180 52 53 63 50 63 -19 0 -48
-1 -47 71 -32 l52 11 -6 64 c-5 71 -8 69 59 43z m1036 -241 c37 -26 48 -39 48
-60 0 -36 36 -76 85 -93 45 -16 45 -10 3 -123 -17 -45 -29 -85 -26 -88 10 -9
106 -17 132 -10 14 3 26 13 26 20 0 8 12 17 26 20 l27 7 -7 80 c-4 54 -3 79 4
79 6 0 34 10 61 21 51 22 79 57 79 99 0 16 14 27 56 46 59 26 100 25 90 -3 -5
-11 -2 -13 10 -9 23 9 70 -28 99 -78 34 -58 35 -139 2 -187 -19 -29 -142 -108
-151 -97 -2 1 -1 43 2 91 4 87 5 89 36 108 20 12 25 19 14 19 -9 0 -20 -4 -23
-10 -7 -12 -26 -14 -24 -2 1 4 0 23 -1 42 -2 19 -6 -14 -11 -75 -12 -178 -16
-194 -47 -202 -53 -15 -521 -7 -606 11 -43 8 -81 17 -83 19 -2 2 15 44 37 93
23 49 48 105 57 124 9 19 20 43 25 53 5 9 6 17 4 17 -3 0 -13 -14 -21 -31 -12
-22 -21 -29 -33 -24 -38 15 -45 15 -19 0 15 -8 27 -18 27 -20 0 -17 -77 -155
-86 -155 -20 0 -63 59 -70 96 -12 66 22 136 99 203 36 32 38 33 62 17 33 -22
38 -20 31 9 -9 34 8 32 66 -7z m285 -35 c-20 -2 -52 -2 -70 0 -17 2 0 4 38 4
39 0 53 -2 32 -4z m13 -21 c0 -4 -11 -23 -24 -41 l-24 -32 -21 30 c-31 43 -27
51 24 51 25 0 45 -4 45 -8z m-1392 -446 c20 -14 49 -28 63 -31 25 -6 26 -8 14
-43 -10 -29 -21 -40 -51 -50 -49 -17 -134 -9 -151 15 -32 43 -5 118 45 126 15
2 30 5 35 6 4 0 24 -10 45 -23z m773 -53 l24 -26 -32 23 c-34 25 -39 30 -25
30 5 0 19 -12 33 -27z m197 -39 c2 -2 -6 -16 -18 -32 l-22 -29 -46 18 c-26 10
-55 20 -65 23 -14 5 -16 10 -7 25 17 32 100 29 158 -5z m810 8 c34 -43 0 -72
-84 -72 -57 0 -68 3 -90 27 -26 29 -27 29 13 53 35 22 141 16 161 -8z m-697
-59 l17 -38 -60 -28 -60 -29 -24 23 c-13 12 -24 26 -24 30 0 5 14 24 31 44 25
28 38 35 68 35 32 0 38 -4 52 -37z m-203 -3 c38 -14 38 -15 12 -57 -23 -38
-22 -38 -82 -17 l-47 15 16 43 c18 48 15 47 101 16z m-808 7 c0 -7 9 -30 19
-51 l20 -38 -27 7 c-15 4 -50 10 -78 14 -32 5 -64 18 -87 35 -20 16 -37 29
-37 30 0 1 28 0 63 -2 34 -2 73 1 87 7 34 13 40 13 40 -2z m1687 -30 c26 -4
-54 -45 -99 -52 l-48 -6 0 33 0 34 68 -4 c37 -2 73 -4 79 -5z"/>
<path d="M610 1921 c0 -39 -99 -55 -124 -20 l-14 21 -16 -24 c-36 -54 -16
-143 36 -168 l23 -11 -22 17 c-41 30 -22 68 19 40 29 -20 62 -20 83 0 12 13
18 14 31 4 13 -11 13 -15 -2 -31 -10 -11 -14 -19 -11 -19 16 0 46 46 52 80 5
28 1 51 -14 84 -20 47 -41 61 -41 27z"/>
<path d="M963 1903 c-30 -31 -102 -33 -110 -3 -8 29 -17 25 -36 -15 -26 -55
-22 -101 12 -136 16 -16 35 -29 43 -29 7 0 1 8 -14 18 -32 19 -34 25 -13 42
11 10 18 9 30 -4 21 -20 63 -21 85 -1 15 14 19 14 31 -1 11 -14 10 -19 -11
-36 l-25 -20 25 14 c14 8 31 26 38 39 17 32 8 118 -15 139 -17 15 -20 15 -40
-7z"/>
<path d="M662 1659 c4 -41 30 -59 59 -41 15 10 24 10 34 2 32 -27 71 13 54 55
-6 16 -8 14 -8 -11 -2 -55 -37 -51 -60 7 -9 21 -10 22 -10 3 -1 -11 -7 -29
-15 -39 -12 -17 -16 -17 -31 -5 -10 8 -15 23 -12 37 2 13 0 23 -5 23 -5 0 -8
-14 -6 -31z"/>
<path d="M1487 1509 c-15 -11 -26 -23 -25 -27 1 -4 -10 -25 -24 -47 -29 -44
-58 -144 -57 -196 0 -22 5 -9 14 37 19 106 23 113 82 151 30 19 56 33 57 31 2
-1 6 -14 9 -28 5 -22 0 -28 -41 -47 -34 -16 -50 -19 -59 -11 -9 7 -13 7 -13 0
0 -6 5 -14 11 -17 6 -4 8 -23 4 -49 l-6 -41 15 32 c16 36 69 73 103 73 13 0
41 -7 64 -17 32 -12 45 -25 59 -57 15 -32 19 -36 19 -18 2 52 -62 122 -111
122 -31 0 -51 74 -29 108 8 14 57 7 67 -9 7 -11 24 -12 24 -1 0 15 -50 32 -94
32 -29 0 -52 -7 -69 -21z m56 -12 c-3 -14 -22 -34 -49 -50 -46 -27 -59 -23
-24 8 11 10 17 22 14 27 -4 6 27 25 62 38 1 0 -1 -10 -3 -23z"/>
<path d="M1634 1281 c10 -16 -30 -40 -74 -43 -37 -3 -46 0 -56 20 l-11 23 -17
-26 c-9 -13 -19 -45 -22 -69 -6 -41 -4 -48 24 -75 17 -17 36 -31 44 -31 7 1 1
8 -14 16 -32 17 -34 21 -12 45 15 17 17 16 35 -2 29 -29 80 -24 90 10 4 11 8
10 23 -4 9 -10 15 -24 12 -32 -3 -8 -2 -11 3 -8 17 10 33 76 27 108 -7 36 -32
77 -47 77 -6 0 -8 -4 -5 -9z"/>
<path d="M1993 1264 c-30 -33 -100 -34 -111 -3 -8 21 -9 20 -27 -7 -10 -16
-19 -48 -19 -72 -1 -36 4 -48 27 -68 15 -13 33 -24 40 -24 7 1 0 8 -16 16 -23
12 -26 18 -17 34 13 24 23 25 40 5 17 -20 64 -19 85 1 24 24 45 2 27 -29 -10
-16 -6 -15 12 6 29 32 35 94 13 136 -16 32 -28 33 -54 5z"/>
<path d="M1374 1085 c0 -66 1 -92 3 -57 2 34 2 88 0 120 -2 31 -3 3 -3 -63z"/>
<path d="M1680 1036 c0 -35 26 -53 52 -37 15 9 23 10 31 2 28 -28 58 -5 56 42
-1 16 -3 14 -8 -8 -4 -21 -12 -30 -26 -30 -14 0 -21 9 -25 30 l-5 30 -14 -33
c-17 -40 -46 -40 -46 1 1 15 -3 27 -7 27 -4 0 -8 -11 -8 -24z"/>
</g>
</svg>
